<mxfile host="app.diagrams.net" agent="Mozilla/5.0 (Windows NT 10.0; Win64; x64) AppleWebKit/537.36 (KHTML, like Gecko) Chrome/138.0.0.0 Safari/537.36 Edg/138.0.0.0" version="27.2.0">
  <diagram name="第 1 页" id="J5eq60l-Wo587PuITIUN">
    <mxGraphModel dx="2240" dy="886" grid="1" gridSize="10" guides="1" tooltips="1" connect="1" arrows="1" fold="1" page="1" pageScale="1" pageWidth="827" pageHeight="1169" math="0" shadow="0">
      <root>
        <mxCell id="0" />
        <mxCell id="1" parent="0" />
        <mxCell id="j6RbAIwZJsywD9VV9y3N-3" value="" style="edgeStyle=orthogonalEdgeStyle;rounded=0;orthogonalLoop=1;jettySize=auto;html=1;" edge="1" parent="1" source="j6RbAIwZJsywD9VV9y3N-1" target="j6RbAIwZJsywD9VV9y3N-2">
          <mxGeometry relative="1" as="geometry" />
        </mxCell>
        <mxCell id="j6RbAIwZJsywD9VV9y3N-1" value="开始" style="ellipse;whiteSpace=wrap;html=1;aspect=fixed;" vertex="1" parent="1">
          <mxGeometry x="250" y="260" width="80" height="80" as="geometry" />
        </mxCell>
        <mxCell id="j6RbAIwZJsywD9VV9y3N-5" value="" style="edgeStyle=orthogonalEdgeStyle;rounded=0;orthogonalLoop=1;jettySize=auto;html=1;" edge="1" parent="1" source="j6RbAIwZJsywD9VV9y3N-2" target="j6RbAIwZJsywD9VV9y3N-4">
          <mxGeometry relative="1" as="geometry" />
        </mxCell>
        <mxCell id="j6RbAIwZJsywD9VV9y3N-8" style="edgeStyle=orthogonalEdgeStyle;rounded=0;orthogonalLoop=1;jettySize=auto;html=1;exitX=1;exitY=0.5;exitDx=0;exitDy=0;entryX=0;entryY=0.5;entryDx=0;entryDy=0;" edge="1" parent="1" source="j6RbAIwZJsywD9VV9y3N-2" target="j6RbAIwZJsywD9VV9y3N-6">
          <mxGeometry relative="1" as="geometry">
            <Array as="points">
              <mxPoint x="380" y="445" />
              <mxPoint x="380" y="340" />
            </Array>
          </mxGeometry>
        </mxCell>
        <mxCell id="j6RbAIwZJsywD9VV9y3N-13" value="" style="edgeStyle=orthogonalEdgeStyle;rounded=0;orthogonalLoop=1;jettySize=auto;html=1;" edge="1" parent="1" source="j6RbAIwZJsywD9VV9y3N-2">
          <mxGeometry relative="1" as="geometry">
            <mxPoint x="290" y="560" as="targetPoint" />
          </mxGeometry>
        </mxCell>
        <mxCell id="j6RbAIwZJsywD9VV9y3N-2" value="数据上报异常" style="rhombus;whiteSpace=wrap;html=1;fillColor=#fff2cc;strokeColor=#d6b656;" vertex="1" parent="1">
          <mxGeometry x="230" y="390" width="120" height="110" as="geometry" />
        </mxCell>
        <mxCell id="j6RbAIwZJsywD9VV9y3N-11" style="edgeStyle=orthogonalEdgeStyle;rounded=0;orthogonalLoop=1;jettySize=auto;html=1;exitX=1;exitY=0.5;exitDx=0;exitDy=0;" edge="1" parent="1" source="j6RbAIwZJsywD9VV9y3N-4" target="j6RbAIwZJsywD9VV9y3N-9">
          <mxGeometry relative="1" as="geometry" />
        </mxCell>
        <mxCell id="j6RbAIwZJsywD9VV9y3N-4" value="外挂对抗" style="whiteSpace=wrap;html=1;" vertex="1" parent="1">
          <mxGeometry x="414" y="415" width="120" height="60" as="geometry" />
        </mxCell>
        <mxCell id="j6RbAIwZJsywD9VV9y3N-10" style="edgeStyle=orthogonalEdgeStyle;rounded=0;orthogonalLoop=1;jettySize=auto;html=1;exitX=1;exitY=0.5;exitDx=0;exitDy=0;" edge="1" parent="1" source="j6RbAIwZJsywD9VV9y3N-6" target="j6RbAIwZJsywD9VV9y3N-9">
          <mxGeometry relative="1" as="geometry" />
        </mxCell>
        <mxCell id="j6RbAIwZJsywD9VV9y3N-6" value="错误分析" style="whiteSpace=wrap;html=1;" vertex="1" parent="1">
          <mxGeometry x="414" y="310" width="120" height="60" as="geometry" />
        </mxCell>
        <mxCell id="j6RbAIwZJsywD9VV9y3N-9" value="方案更新优化" style="rounded=1;whiteSpace=wrap;html=1;fillColor=#d5e8d4;strokeColor=#82b366;" vertex="1" parent="1">
          <mxGeometry x="610" y="360" width="120" height="60" as="geometry" />
        </mxCell>
        <mxCell id="j6RbAIwZJsywD9VV9y3N-19" value="" style="edgeStyle=orthogonalEdgeStyle;rounded=0;orthogonalLoop=1;jettySize=auto;html=1;" edge="1" parent="1" source="j6RbAIwZJsywD9VV9y3N-15" target="j6RbAIwZJsywD9VV9y3N-18">
          <mxGeometry relative="1" as="geometry" />
        </mxCell>
        <mxCell id="j6RbAIwZJsywD9VV9y3N-20" value="" style="edgeStyle=orthogonalEdgeStyle;rounded=0;orthogonalLoop=1;jettySize=auto;html=1;" edge="1" parent="1" source="j6RbAIwZJsywD9VV9y3N-15" target="j6RbAIwZJsywD9VV9y3N-18">
          <mxGeometry relative="1" as="geometry" />
        </mxCell>
        <mxCell id="j6RbAIwZJsywD9VV9y3N-21" value="" style="edgeStyle=orthogonalEdgeStyle;rounded=0;orthogonalLoop=1;jettySize=auto;html=1;" edge="1" parent="1" source="j6RbAIwZJsywD9VV9y3N-15" target="j6RbAIwZJsywD9VV9y3N-18">
          <mxGeometry relative="1" as="geometry" />
        </mxCell>
        <mxCell id="j6RbAIwZJsywD9VV9y3N-28" style="edgeStyle=orthogonalEdgeStyle;rounded=0;orthogonalLoop=1;jettySize=auto;html=1;exitX=1;exitY=0.5;exitDx=0;exitDy=0;entryX=0;entryY=0.5;entryDx=0;entryDy=0;" edge="1" parent="1" source="j6RbAIwZJsywD9VV9y3N-15" target="j6RbAIwZJsywD9VV9y3N-27">
          <mxGeometry relative="1" as="geometry" />
        </mxCell>
        <mxCell id="j6RbAIwZJsywD9VV9y3N-35" value="" style="edgeStyle=orthogonalEdgeStyle;rounded=0;orthogonalLoop=1;jettySize=auto;html=1;" edge="1" parent="1" source="j6RbAIwZJsywD9VV9y3N-15" target="j6RbAIwZJsywD9VV9y3N-34">
          <mxGeometry relative="1" as="geometry" />
        </mxCell>
        <mxCell id="j6RbAIwZJsywD9VV9y3N-15" value="特征分类" style="rhombus;whiteSpace=wrap;html=1;fillColor=#fff2cc;strokeColor=#d6b656;" vertex="1" parent="1">
          <mxGeometry x="230" y="560" width="120" height="110" as="geometry" />
        </mxCell>
        <mxCell id="j6RbAIwZJsywD9VV9y3N-16" value="异常" style="text;html=1;align=center;verticalAlign=middle;resizable=0;points=[];autosize=1;strokeColor=none;fillColor=none;" vertex="1" parent="1">
          <mxGeometry x="330" y="415" width="50" height="30" as="geometry" />
        </mxCell>
        <mxCell id="j6RbAIwZJsywD9VV9y3N-17" value="无异常" style="text;html=1;align=center;verticalAlign=middle;resizable=0;points=[];autosize=1;strokeColor=none;fillColor=none;" vertex="1" parent="1">
          <mxGeometry x="280" y="520" width="60" height="30" as="geometry" />
        </mxCell>
        <mxCell id="j6RbAIwZJsywD9VV9y3N-18" value="无外挂特征" style="whiteSpace=wrap;html=1;" vertex="1" parent="1">
          <mxGeometry x="414" y="500" width="120" height="60" as="geometry" />
        </mxCell>
        <mxCell id="j6RbAIwZJsywD9VV9y3N-30" style="edgeStyle=orthogonalEdgeStyle;rounded=0;orthogonalLoop=1;jettySize=auto;html=1;exitX=1;exitY=0.5;exitDx=0;exitDy=0;entryX=0;entryY=0.5;entryDx=0;entryDy=0;" edge="1" parent="1" source="j6RbAIwZJsywD9VV9y3N-25" target="j6RbAIwZJsywD9VV9y3N-32">
          <mxGeometry relative="1" as="geometry">
            <mxPoint x="600" y="680" as="targetPoint" />
          </mxGeometry>
        </mxCell>
        <mxCell id="j6RbAIwZJsywD9VV9y3N-25" value="存在rw/rx类型内存，存在pe特征" style="rounded=0;whiteSpace=wrap;html=1;fillColor=#f8cecc;strokeColor=#b85450;" vertex="1" parent="1">
          <mxGeometry x="414" y="600" width="120" height="60" as="geometry" />
        </mxCell>
        <mxCell id="j6RbAIwZJsywD9VV9y3N-26" style="edgeStyle=orthogonalEdgeStyle;rounded=0;orthogonalLoop=1;jettySize=auto;html=1;exitX=1;exitY=0.5;exitDx=0;exitDy=0;entryX=-0.017;entryY=0.617;entryDx=0;entryDy=0;entryPerimeter=0;" edge="1" parent="1" source="j6RbAIwZJsywD9VV9y3N-15" target="j6RbAIwZJsywD9VV9y3N-25">
          <mxGeometry relative="1" as="geometry" />
        </mxCell>
        <mxCell id="j6RbAIwZJsywD9VV9y3N-31" style="edgeStyle=orthogonalEdgeStyle;rounded=0;orthogonalLoop=1;jettySize=auto;html=1;exitX=1;exitY=0.5;exitDx=0;exitDy=0;entryX=0;entryY=0.5;entryDx=0;entryDy=0;" edge="1" parent="1" source="j6RbAIwZJsywD9VV9y3N-27" target="j6RbAIwZJsywD9VV9y3N-32">
          <mxGeometry relative="1" as="geometry">
            <mxPoint x="600" y="680" as="targetPoint" />
          </mxGeometry>
        </mxCell>
        <mxCell id="j6RbAIwZJsywD9VV9y3N-27" value="易语言特征" style="rounded=0;whiteSpace=wrap;html=1;fillColor=#f8cecc;strokeColor=#b85450;" vertex="1" parent="1">
          <mxGeometry x="414" y="710" width="120" height="60" as="geometry" />
        </mxCell>
        <mxCell id="j6RbAIwZJsywD9VV9y3N-32" value="外挂提单或直接处罚" style="rounded=1;whiteSpace=wrap;html=1;fillColor=#d5e8d4;strokeColor=#82b366;" vertex="1" parent="1">
          <mxGeometry x="610" y="640" width="120" height="60" as="geometry" />
        </mxCell>
        <mxCell id="j6RbAIwZJsywD9VV9y3N-37" value="" style="edgeStyle=orthogonalEdgeStyle;rounded=0;orthogonalLoop=1;jettySize=auto;html=1;" edge="1" parent="1" source="j6RbAIwZJsywD9VV9y3N-34" target="j6RbAIwZJsywD9VV9y3N-36">
          <mxGeometry relative="1" as="geometry" />
        </mxCell>
        <mxCell id="j6RbAIwZJsywD9VV9y3N-39" value="" style="edgeStyle=orthogonalEdgeStyle;rounded=0;orthogonalLoop=1;jettySize=auto;html=1;" edge="1" parent="1" source="j6RbAIwZJsywD9VV9y3N-34" target="j6RbAIwZJsywD9VV9y3N-38">
          <mxGeometry relative="1" as="geometry" />
        </mxCell>
        <mxCell id="j6RbAIwZJsywD9VV9y3N-34" value="特征统计" style="whiteSpace=wrap;html=1;" vertex="1" parent="1">
          <mxGeometry x="230" y="750" width="120" height="60" as="geometry" />
        </mxCell>
        <mxCell id="j6RbAIwZJsywD9VV9y3N-36" value="入库" style="shape=cylinder3;whiteSpace=wrap;html=1;boundedLbl=1;backgroundOutline=1;size=15;fillStyle=zigzag-line;fillColor=#DAE8FC;strokeColor=#6c8ebf;" vertex="1" parent="1">
          <mxGeometry x="80" y="740" width="60" height="80" as="geometry" />
        </mxCell>
        <mxCell id="j6RbAIwZJsywD9VV9y3N-38" value="结束" style="ellipse;whiteSpace=wrap;html=1;" vertex="1" parent="1">
          <mxGeometry x="250" y="870" width="80" height="80" as="geometry" />
        </mxCell>
        <mxCell id="j6RbAIwZJsywD9VV9y3N-40" value="" style="rounded=0;whiteSpace=wrap;html=1;" vertex="1" parent="1">
          <mxGeometry x="-170" y="220" width="120" height="60" as="geometry" />
        </mxCell>
        <mxCell id="j6RbAIwZJsywD9VV9y3N-41" value="" style="rounded=0;whiteSpace=wrap;html=1;" vertex="1" parent="1">
          <mxGeometry x="790" y="980" width="120" height="60" as="geometry" />
        </mxCell>
      </root>
    </mxGraphModel>
  </diagram>
</mxfile>
